{
  "source": "C:\\Users\\Peter\\Desktop\\stuff\\MIUN\\quantitative_research\\video_compression\\videos\\BVI-HD\\BVI-HD_CDVL_videos\\ORIG\\Boxing_1920x1080_30fps.mp4",
  "output": "C:\\Users\\Peter\\Desktop\\stuff\\MIUN\\quantitative_research\\video_compression\\compressed_videos\\BVI-HD\\h264\\1\\Boxing_1920x1080_30fps_h264.mp4",
  "codec": "h264",
  "ok": "Input #0, mov,mp4,m4a,3gp,3g2,mj2, from 'C:\\Users\\Peter\\Desktop\\stuff\\MIUN\\quantitative_research\\video_compression\\videos\\BVI-HD\\BVI-HD_CDVL_videos\\ORIG\\Boxing_1920x1080_30fps.mp4':\n  Metadata:\n    major_brand     : isom\n    minor_version   : 512\n    compatible_brands: isomiso2avc1mp41\n    encoder         : Lavf54.28.101\n  Duration: 00:00:05.00, start: 0.000000, bitrate: 238363 kb/s\n  Stream #0:0[0x1](und): Video: h264 (High 4:4:4 Predictive) (avc1 / 0x31637661), yuv420p(progressive), 1920x1080, 238359 kb/s, 30 fps, 30 tbr, 30 tbn (default)\n    Metadata:\n      handler_name    : VideoHandler\n      vendor_id       : [0][0][0][0]\n[out#0/mp4 @ 000001ad44a6c4c0] Codec AVOption b:a (set bitrate (in bits/s)) has not been used for any stream. The most likely reason is either wrong type (e.g. a video option with no video streams) or that it is a private option of some decoder which was not actually used for any stream.\nStream mapping:\n  Stream #0:0 -> #0:0 (h264 (native) -> h264 (libx264))\nPress [q] to stop, [?] for help\n[libx264 @ 000001ad4530bb80] using cpu capabilities: MMX2 SSE2Fast SSSE3 SSE4.2 AVX FMA3 BMI2 AVX2\n[libx264 @ 000001ad4530bb80] profile High, level 5.0, 4:2:0, 8-bit\n[libx264 @ 000001ad4530bb80] 264 - core 165 r3222 b35605a - H.264/MPEG-4 AVC codec - Copyleft 2003-2025 - http://www.videolan.org/x264.html - options: cabac=1 ref=5 deblock=1:0:0 analyse=0x3:0x113 me=hex subme=8 psy=1 psy_rd=1.00:0.00 mixed_ref=1 me_range=16 chroma_me=1 trellis=2 8x8dct=1 cqm=0 deadzone=21,11 fast_pskip=1 chroma_qp_offset=-2 threads=18 lookahead_threads=3 sliced_threads=0 nr=0 decimate=1 interlaced=0 bluray_compat=0 constrained_intra=0 bframes=3 b_pyramid=2 b_adapt=1 b_bias=0 direct=3 weightb=1 open_gop=0 weightp=2 keyint=250 keyint_min=25 scenecut=40 intra_refresh=0 rc_lookahead=50 rc=cbr mbtree=1 bitrate=1000 ratetol=1.0 qcomp=0.60 qpmin=0 qpmax=69 qpstep=4 vbv_maxrate=1000 vbv_bufsize=1000 nal_hrd=none filler=0 ip_ratio=1.40 aq=1:1.00\nOutput #0, mp4, to 'C:\\Users\\Peter\\Desktop\\stuff\\MIUN\\quantitative_research\\video_compression\\compressed_videos\\BVI-HD\\h264\\1\\Boxing_1920x1080_30fps_h264.mp4':\n  Metadata:\n    major_brand     : isom\n    minor_version   : 512\n    compatible_brands: isomiso2avc1mp41\n    encoder         : Lavf62.3.100\n  Stream #0:0(und): Video: h264 (avc1 / 0x31637661), yuv420p(tv, progressive), 1920x1080, q=2-31, 1000 kb/s, 30 fps, 15360 tbn (default)\n    Metadata:\n      encoder         : Lavc62.11.100 libx264\n      handler_name    : VideoHandler\n      vendor_id       : [0][0][0][0]\n    Side data:\n      cpb: bitrate max/min/avg: 1000000/0/1000000 buffer size: 1000000 vbv_delay: N/A\nframe=    0 fps=0.0 q=0.0 size=       0KiB time=N/A bitrate=N/A speed=N/A elapsed=0:00:00.54    \nframe=    0 fps=0.0 q=0.0 size=       0KiB time=N/A bitrate=N/A speed=N/A elapsed=0:00:01.06    \nframe=    0 fps=0.0 q=0.0 size=       0KiB time=N/A bitrate=N/A speed=N/A elapsed=0:00:01.68    \nframe=   11 fps=5.0 q=46.0 size=       0KiB time=00:00:00.20 bitrate=   1.9kbits/s speed=0.091x elapsed=0:00:02.19    \nframe=   35 fps= 13 q=46.0 size=       0KiB time=00:00:00.93 bitrate=   0.4kbits/s speed=0.335x elapsed=0:00:02.78    \nframe=   63 fps= 18 q=45.0 size=       0KiB time=00:00:01.90 bitrate=   0.2kbits/s speed=0.552x elapsed=0:00:03.44    \nframe=   95 fps= 23 q=46.0 size=     256KiB time=00:00:03.10 bitrate= 676.6kbits/s speed=0.765x elapsed=0:00:04.04    \nframe=  127 fps= 28 q=44.0 size=     256KiB time=00:00:04.16 bitrate= 503.4kbits/s speed=0.91x elapsed=0:00:04.57    \n[mp4 @ 000001ad45514a00] Starting second pass: moving the moov atom to the beginning of the file\n[out#0/mp4 @ 000001ad44a6c4c0] video:553KiB audio:0KiB subtitle:0KiB other streams:0KiB global headers:0KiB muxing overhead: 0.459467%\nframe=  150 fps= 30 q=-1.0 Lsize=     556KiB time=00:00:04.93 bitrate= 922.9kbits/s speed=0.997x elapsed=0:00:04.94    \n[libx264 @ 000001ad4530bb80] frame I:1     Avg QP:41.76  size: 14556\n[libx264 @ 000001ad4530bb80] frame P:40    Avg QP:44.19  size:  5875\n[libx264 @ 000001ad4530bb80] frame B:109   Avg QP:46.61  size:  2901\n[libx264 @ 000001ad4530bb80] consecutive B-frames:  0.7%  2.7% 14.0% 82.7%\n[libx264 @ 000001ad4530bb80] mb I  I16..4: 47.4% 52.0%  0.6%\n[libx264 @ 000001ad4530bb80] mb P  I16..4: 11.6% 11.9%  0.0%  P16..4: 17.1%  0.5%  1.2%  0.0%  0.0%    skip:57.7%\n[libx264 @ 000001ad4530bb80] mb B  I16..4:  2.2%  2.0%  0.0%  B16..8: 17.2%  0.5%  0.0%  direct: 0.4%  skip:77.8%  L0:44.8% L1:54.4% BI: 0.8%\n[libx264 @ 000001ad4530bb80] 8x8 transform intra:50.0% inter:96.5%\n[libx264 @ 000001ad4530bb80] direct mvs  spatial:91.7% temporal:8.3%\n[libx264 @ 000001ad4530bb80] coded y,uvDC,uvAC intra: 4.9% 21.5% 0.7% inter: 0.6% 1.9% 0.0%\n[libx264 @ 000001ad4530bb80] i16 v,h,dc,p: 36% 27%  6% 31%\n[libx264 @ 000001ad4530bb80] i8 v,h,dc,ddl,ddr,vr,hd,vl,hu: 17%  7% 56%  4%  4%  4%  3%  3%  2%\n[libx264 @ 000001ad4530bb80] i4 v,h,dc,ddl,ddr,vr,hd,vl,hu: 20%  9% 32%  8% 11%  8%  6%  4%  3%\n[libx264 @ 000001ad4530bb80] i8c dc,h,v,p: 88%  6%  6%  1%\n[libx264 @ 000001ad4530bb80] Weighted P-Frames: Y:7.5% UV:7.5%\n[libx264 @ 000001ad4530bb80] ref P L0: 50.2%  3.9% 24.9%  9.6% 10.4%  1.0%\n[libx264 @ 000001ad4530bb80] ref B L0: 74.1% 15.6%  7.7%  2.5%\n[libx264 @ 000001ad4530bb80] ref B L1: 92.7%  7.3%\n[libx264 @ 000001ad4530bb80] kb/s:905.22\n",
  "seconds": 5.495031833648682,
  "probe_out": {}
}